# xmcd CD database file generated by Grip 3.0.2
# 
# Track frame offsets:
#       150
#       21185
#       37008
#       60852
#       76021
#       92128
#       127030
#       145102
#       162018
#       188326
# 
# Disc length: 2743 seconds
# 
# Revision: 4
# Processed by: cddbd v1.4PL0 Copyright (c) Steve Scherf et al.
# Submitted via: Grip 3.0.2
# 
DISCID=700ab50a
DTITLE=Jimmy Dewrance Blues Band - Too Gone Blue!
DYEAR=1998
DGENRE=Blues
TTITLE0=Talk To Me
TTITLE1=Blow Wind Blow
TTITLE2=That's Not Right
TTITLE3=I Hear You Knocking
TTITLE4=Bumpity Bump
TTITLE5=Long Distance Call
TTITLE6=Everything's Gonna Be Alright
TTITLE7=Hard Luck Lovin'
TTITLE8=Look What You've Done To Me
TTITLE9=Let's Eat!
EXTD=
EXTT0=
EXTT1=
EXTT2=
EXTT3=
EXTT4=
EXTT5=
EXTT6=
EXTT7=
EXTT8=
EXTT9=
PLAYORDER=
